<svg width="70" height="70" viewBox="0 0 70 70" fill="none" xmlns="http://www.w3.org/2000/svg">
<path d="M13.125 49.2188C13.125 52.2266 15.0883 54.6875 17.5 54.6875C18.0279 54.6757 18.5478 54.5566 19.0282 54.3376C19.5086 54.1185 19.9395 53.804 20.2945 53.4133C20.4903 53.1949 20.7281 53.0182 20.9935 52.8935C21.259 52.7689 21.5469 52.6989 21.84 52.6878C22.133 52.6766 22.4254 52.7245 22.6996 52.8286C22.9737 52.9327 23.2242 53.0909 23.436 53.2938C23.6479 53.4966 23.8167 53.74 23.9326 54.0094C24.0485 54.2788 24.109 54.5688 24.1106 54.8621C24.1121 55.1554 24.0547 55.446 23.9417 55.7166C23.8287 55.9873 23.6624 56.2324 23.4527 56.4375C22.692 57.2579 21.7714 57.9139 20.7477 58.3654C19.724 58.8168 18.6188 59.054 17.5 59.0625C12.6738 59.0625 8.75 54.6465 8.75 49.2188C8.75 43.791 12.6738 39.375 17.5 39.375C18.6188 39.3835 19.724 39.6207 20.7477 40.0721C21.7714 40.5236 22.692 41.1796 23.4527 42C23.6624 42.2051 23.8287 42.4502 23.9417 42.7209C24.0547 42.9915 24.1121 43.2821 24.1106 43.5754C24.109 43.8687 24.0485 44.1587 23.9326 44.4281C23.8167 44.6975 23.6479 44.9409 23.436 45.1437C23.2242 45.3466 22.9737 45.5048 22.6996 45.6089C22.4254 45.713 22.133 45.7609 21.84 45.7497C21.5469 45.7386 21.259 45.6686 20.9935 45.544C20.7281 45.4193 20.4903 45.2426 20.2945 45.0242C19.9395 44.6335 19.5086 44.319 19.0282 44.0999C18.5478 43.8809 18.0279 43.7618 17.5 43.75C15.0883 43.75 13.125 46.2109 13.125 49.2188ZM34.8906 46.8426C33.7969 46.5254 32.6648 46.2 32.0332 45.7926C31.6887 45.5711 31.6969 45.5191 31.727 45.273C31.7311 45.0742 31.7829 44.8793 31.878 44.7046C31.9732 44.53 32.109 44.3808 32.2738 44.2695C33.5316 43.4164 36.4684 43.7965 37.6961 44.1164C38.2574 44.264 38.8543 44.1825 39.3556 43.89C39.8569 43.5974 40.2214 43.1177 40.3689 42.5564C40.5165 41.9951 40.4351 41.3982 40.1425 40.8969C39.85 40.3957 39.3703 40.0312 38.809 39.8836C38.2293 39.7332 33.0668 38.4562 29.832 40.6383C29.147 41.0973 28.5714 41.7016 28.1461 42.408C27.7208 43.1145 27.4562 43.906 27.3711 44.7262C26.8242 49.0684 31.1008 50.307 33.6602 51.0453C36.9605 51.9996 37.2504 52.3906 37.1547 53.1207C37.0699 53.7797 36.8102 54.034 36.5695 54.1953C35.3117 55.032 32.4215 54.6219 31.2238 54.2937C30.6678 54.1462 30.0759 54.2237 29.5766 54.5094C29.0772 54.7951 28.7105 55.266 28.5559 55.8202C28.4013 56.3743 28.4712 56.9671 28.7504 57.47C29.0297 57.973 29.4959 58.3457 30.048 58.5074C31.4033 58.8627 32.7978 59.0464 34.1988 59.0543C35.793 59.0543 37.5621 58.7809 38.9812 57.8348C39.6817 57.3693 40.2703 56.7545 40.7048 56.0344C41.1393 55.3144 41.4089 54.507 41.4941 53.6703C42.1094 48.9453 37.5922 47.6246 34.8906 46.8426ZM52.3906 46.8426C51.2969 46.5254 50.1648 46.2 49.5332 45.7926C49.1914 45.5711 49.1969 45.5191 49.227 45.273C49.2311 45.0742 49.2829 44.8793 49.378 44.7046C49.4732 44.53 49.609 44.3808 49.7738 44.2695C51.0316 43.4164 53.9684 43.7965 55.1934 44.1164C55.7547 44.264 56.3516 44.1825 56.8529 43.89C57.3541 43.5974 57.7186 43.1177 57.8662 42.5564C58.0138 41.9951 57.9323 41.3982 57.6398 40.8969C57.3472 40.3957 56.8676 40.0312 56.3062 39.8836C55.7293 39.7332 50.5641 38.4562 47.3293 40.6383C46.6472 41.0992 46.0745 41.7041 45.6517 42.4104C45.2288 43.1168 44.9661 43.9073 44.882 44.7262C44.3352 49.0684 48.6145 50.307 51.1711 51.0453C54.4687 51.9996 54.7586 52.3906 54.6656 53.1207C54.5809 53.7797 54.3211 54.034 54.0777 54.1953C52.8199 55.032 49.9324 54.6219 48.7348 54.2937C48.1749 54.1378 47.576 54.2107 47.0699 54.4963C46.5638 54.782 46.1919 55.2569 46.0359 55.8168C45.88 56.3767 45.9529 56.9755 46.2385 57.4816C46.5241 57.9878 46.9991 58.3597 47.559 58.5156C48.9152 58.8708 50.3106 59.0545 51.7125 59.0625C53.3039 59.0625 55.0758 58.7891 56.4949 57.843C57.195 57.3774 57.7832 56.7624 58.2172 56.0424C58.6513 55.3223 58.9203 54.515 59.0051 53.6785C59.6094 48.9453 55.0922 47.6246 52.3879 46.8426H52.3906ZM10.9375 30.625V10.9375C10.9375 9.77718 11.3984 8.66438 12.2189 7.84391C13.0394 7.02344 14.1522 6.5625 15.3125 6.5625H41.5625C41.8499 6.56227 42.1344 6.61867 42.4 6.72845C42.6655 6.83824 42.9069 6.99927 43.1102 7.20234L58.4227 22.5148C58.6257 22.7181 58.7868 22.9595 58.8965 23.225C59.0063 23.4906 59.0627 23.7751 59.0625 24.0625V30.625C59.0625 31.2052 58.832 31.7616 58.4218 32.1718C58.0116 32.582 57.4552 32.8125 56.875 32.8125C56.2948 32.8125 55.7384 32.582 55.3282 32.1718C54.918 31.7616 54.6875 31.2052 54.6875 30.625V26.25H41.5625C40.9823 26.25 40.4259 26.0195 40.0157 25.6093C39.6055 25.1991 39.375 24.6427 39.375 24.0625V10.9375H15.3125V30.625C15.3125 31.2052 15.082 31.7616 14.6718 32.1718C14.2616 32.582 13.7052 32.8125 13.125 32.8125C12.5448 32.8125 11.9884 32.582 11.5782 32.1718C11.168 31.7616 10.9375 31.2052 10.9375 30.625ZM43.75 21.875H51.5922L43.75 14.0301V21.875Z" fill="#1B1C26"/>
</svg>
