<svg width="70" height="70" viewBox="0 0 70 70" fill="none" xmlns="http://www.w3.org/2000/svg">
<path d="M23.3333 49.5833C21.7292 49.5833 20.3554 49.0117 19.2121 47.8683C18.0688 46.725 17.4981 45.3522 17.5 43.75V26.25C17.5 25.4236 17.78 24.7304 18.34 24.1704C18.9 23.6104 19.5922 23.3314 20.4167 23.3333C21.2431 23.3333 21.9363 23.6133 22.4963 24.1733C23.0563 24.7333 23.3353 25.4256 23.3333 26.25V43.75H46.6667C47.4931 43.75 48.1863 44.03 48.7463 44.59C49.3063 45.15 49.5853 45.8422 49.5833 46.6667C49.5833 47.4931 49.3033 48.1862 48.7433 48.7462C48.1833 49.3062 47.4911 49.5853 46.6667 49.5833H23.3333ZM35 37.9167C33.3958 37.9167 32.0221 37.345 30.8788 36.2017C29.7354 35.0583 29.1647 33.6856 29.1667 32.0833V14.5833C29.1667 12.9792 29.7383 11.6054 30.8817 10.4621C32.025 9.31875 33.3978 8.74805 35 8.75H58.3333C59.9375 8.75 61.3113 9.32166 62.4546 10.465C63.5979 11.6083 64.1686 12.9811 64.1667 14.5833V32.0833C64.1667 33.6875 63.595 35.0612 62.4517 36.2046C61.3083 37.3479 59.9356 37.9186 58.3333 37.9167H35ZM35 32.0833H58.3333V20.4167H35V32.0833ZM11.6667 61.25C10.0625 61.25 8.68876 60.6783 7.54543 59.535C6.4021 58.3917 5.8314 57.0189 5.83335 55.4167V37.9167C5.83335 37.0903 6.11335 36.3971 6.67335 35.8371C7.23335 35.2771 7.92557 34.9981 8.75001 35C9.5764 35 10.2696 35.28 10.8296 35.84C11.3896 36.4 11.6686 37.0922 11.6667 37.9167V55.4167H35C35.8264 55.4167 36.5196 55.6967 37.0796 56.2567C37.6396 56.8167 37.9186 57.5089 37.9167 58.3333C37.9167 59.1597 37.6367 59.8529 37.0767 60.4129C36.5167 60.9729 35.8245 61.2519 35 61.25H11.6667Z" fill="black"/>
</svg>
