<svg width="29" height="29" viewBox="0 0 29 29" fill="none" xmlns="http://www.w3.org/2000/svg">
<path d="M6.75456 4.12042L8.45831 5.82417L4.61581 9.66667L8.45831 13.5092L6.75456 15.225L1.20831 9.66667L6.75456 4.12042ZM13.7871 4.12042L19.3333 9.66667L13.7871 15.225L12.0833 13.5092L15.9258 9.66667L12.0833 5.82417L13.7871 4.12042ZM26.5833 7.25001V21.75C26.5833 23.0913 25.5079 24.1667 24.1666 24.1667H4.83331C4.19237 24.1667 3.57768 23.9121 3.12447 23.4588C2.67126 23.0056 2.41665 22.3909 2.41665 21.75V16.9167H4.83331V21.75H24.1666V7.25001H20.5779V4.83334H24.1666C25.5079 4.83334 26.5833 5.90876 26.5833 7.25001Z" fill="#65E9FF"/>
</svg>
