<svg width="70" height="70" viewBox="0 0 70 70" fill="none" xmlns="http://www.w3.org/2000/svg">
<path opacity="0.2" d="M56.875 24.0625H41.5625V8.75L56.875 24.0625Z" fill="#1B1C26"/>
<path d="M35 41.5625C35 42.1427 34.7695 42.6991 34.3593 43.1093C33.9491 43.5195 33.3927 43.75 32.8125 43.75H30.625V56.875C30.625 57.4552 30.3945 58.0116 29.9843 58.4218C29.5741 58.832 29.0177 59.0625 28.4375 59.0625C27.8573 59.0625 27.3009 58.832 26.8907 58.4218C26.4805 58.0116 26.25 57.4552 26.25 56.875V43.75H24.0625C23.4823 43.75 22.9259 43.5195 22.5157 43.1093C22.1055 42.6991 21.875 42.1427 21.875 41.5625C21.875 40.9823 22.1055 40.4259 22.5157 40.0157C22.9259 39.6055 23.4823 39.375 24.0625 39.375H32.8125C33.3927 39.375 33.9491 39.6055 34.3593 40.0157C34.7695 40.4259 35 40.9823 35 41.5625ZM17.5 39.375C16.9198 39.375 16.3634 39.6055 15.9532 40.0157C15.543 40.4259 15.3125 40.9823 15.3125 41.5625V47.0312H10.9375V41.5625C10.9375 40.9823 10.707 40.4259 10.2968 40.0157C9.88656 39.6055 9.33016 39.375 8.75 39.375C8.16984 39.375 7.61344 39.6055 7.2032 40.0157C6.79297 40.4259 6.5625 40.9823 6.5625 41.5625V56.875C6.5625 57.4552 6.79297 58.0116 7.2032 58.4218C7.61344 58.832 8.16984 59.0625 8.75 59.0625C9.33016 59.0625 9.88656 58.832 10.2968 58.4218C10.707 58.0116 10.9375 57.4552 10.9375 56.875V51.4062H15.3125V56.875C15.3125 57.4552 15.543 58.0116 15.9532 58.4218C16.3634 58.832 16.9198 59.0625 17.5 59.0625C18.0802 59.0625 18.6366 58.832 19.0468 58.4218C19.457 58.0116 19.6875 57.4552 19.6875 56.875V41.5625C19.6875 40.9823 19.457 40.4259 19.0468 40.0157C18.6366 39.6055 18.0802 39.375 17.5 39.375ZM65.625 54.6875H62.3438V41.5625C62.3438 40.9823 62.1133 40.4259 61.703 40.0157C61.2928 39.6055 60.7364 39.375 60.1562 39.375C59.5761 39.375 59.0197 39.6055 58.6095 40.0157C58.1992 40.4259 57.9688 40.9823 57.9688 41.5625V56.875C57.9688 57.4552 58.1992 58.0116 58.6095 58.4218C59.0197 58.832 59.5761 59.0625 60.1562 59.0625H65.625C66.2052 59.0625 66.7616 58.832 67.1718 58.4218C67.582 58.0116 67.8125 57.4552 67.8125 56.875C67.8125 56.2948 67.582 55.7384 67.1718 55.3282C66.7616 54.918 66.2052 54.6875 65.625 54.6875ZM53.0852 39.4543C52.6241 39.3262 52.1337 39.3528 51.6892 39.5302C51.2447 39.7075 50.8706 40.0257 50.6242 40.4359L45.9375 48.248L41.2508 40.4359C41.0046 40.0256 40.6307 39.7074 40.1863 39.5299C39.742 39.3524 39.2517 39.3255 38.7906 39.4534C38.3295 39.5812 37.923 39.8567 37.6334 40.2377C37.3439 40.6186 37.1873 41.084 37.1875 41.5625V56.875C37.1875 57.4552 37.418 58.0116 37.8282 58.4218C38.2384 58.832 38.7948 59.0625 39.375 59.0625C39.9552 59.0625 40.5116 58.832 40.9218 58.4218C41.332 58.0116 41.5625 57.4552 41.5625 56.875V49.4594L44.0617 53.6266C44.2561 53.9505 44.531 54.2186 44.8597 54.4047C45.1884 54.5908 45.5597 54.6886 45.9375 54.6886C46.3153 54.6886 46.6866 54.5908 47.0153 54.4047C47.344 54.2186 47.6189 53.9505 47.8133 53.6266L50.3125 49.4594V56.875C50.3125 57.4552 50.543 58.0116 50.9532 58.4218C51.3634 58.832 51.9198 59.0625 52.5 59.0625C53.0802 59.0625 53.6366 58.832 54.0468 58.4218C54.457 58.0116 54.6875 57.4552 54.6875 56.875V41.5625C54.6876 41.0843 54.531 40.6192 54.2416 40.2384C53.9522 39.8577 53.546 39.5822 53.0852 39.4543ZM56.875 32.8125C56.2948 32.8125 55.7384 32.582 55.3282 32.1718C54.918 31.7616 54.6875 31.2052 54.6875 30.625V26.25H41.5625C40.9823 26.25 40.4259 26.0195 40.0157 25.6093C39.6055 25.1991 39.375 24.6427 39.375 24.0625V10.9375H15.3125V30.625C15.3125 31.2052 15.082 31.7616 14.6718 32.1718C14.2616 32.582 13.7052 32.8125 13.125 32.8125C12.5448 32.8125 11.9884 32.582 11.5782 32.1718C11.168 31.7616 10.9375 31.2052 10.9375 30.625V10.9375C10.9375 9.77718 11.3984 8.66438 12.2189 7.84391C13.0394 7.02344 14.1522 6.5625 15.3125 6.5625H41.5625C41.8499 6.56227 42.1344 6.61867 42.4 6.72845C42.6655 6.83824 42.9069 6.99927 43.1102 7.20234L58.4227 22.5148C58.6257 22.7181 58.7868 22.9595 58.8965 23.225C59.0063 23.4906 59.0627 23.7751 59.0625 24.0625V30.625C59.0625 31.2052 58.832 31.7616 58.4218 32.1718C58.0116 32.582 57.4552 32.8125 56.875 32.8125ZM51.5949 21.875L43.75 14.0301V21.875H51.5949Z" fill="#1B1C26"/>
</svg>
