<svg width="15" height="24" viewBox="0 0 15 24" fill="none" xmlns="http://www.w3.org/2000/svg">
<g clip-path="url(#clip0_7368_2)">
<path d="M8.53131 0.360937C8.26178 0.13125 7.89264 0 7.50006 0C7.10748 0 6.73834 0.13125 6.46881 0.360937L0.37506 5.61094C-0.00579913 5.93906 -0.105408 6.41719 0.117248 6.825C0.339904 7.23281 0.84967 7.5 1.40631 7.5H4.68756V16.5H1.40631C0.84967 16.5 0.339904 16.7672 0.117248 17.175C-0.105408 17.5828 -0.00579913 18.0609 0.37506 18.3891L6.46881 23.6391C6.73248 23.8687 7.10748 24 7.50006 24C7.89264 24 8.26178 23.8687 8.53131 23.6391L14.6251 18.3891C15.0059 18.0609 15.1055 17.5828 14.8829 17.175C14.6602 16.7672 14.1504 16.5 13.5938 16.5H10.3126V7.5H13.5938C14.1504 7.5 14.6602 7.23281 14.8829 6.825C15.1055 6.41719 15.0059 5.93906 14.6251 5.61094L8.53131 0.360937Z" fill="#1B1C26"/>
</g>
<defs>
<clipPath id="clip0_7368_2">
<rect width="15" height="24" fill="white"/>
</clipPath>
</defs>
</svg>
